<svg preserveAspectRatio="none" overflow="visible" style="display: block;" width="19.5002" height="20.5" viewBox="0 0 19.5002 20.5" fill="none" xmlns="http://www.w3.org/2000/svg">
<path id="Vector" d="M0.750097 10.2396V12.75C0.750097 16.0498 0.750097 17.6997 1.77523 18.7249C2.80035 19.75 4.45027 19.75 7.7501 19.75H11.7501C15.0499 19.75 16.6998 19.75 17.725 18.7249C18.7501 17.6997 18.7501 16.0498 18.7501 12.75V10.2396C18.7501 8.5583 18.7501 7.71773 18.3942 6.99005C18.0383 6.26237 17.3748 5.74628 16.0477 4.71411L14.0477 3.15855C11.9832 1.55285 10.951 0.75 9.7501 0.75C8.5492 0.75 7.51699 1.55285 5.45252 3.15855L3.45251 4.71411C2.12543 5.74628 1.46189 6.26237 1.106 6.99005C0.750097 7.71773 0.750097 8.5583 0.750097 10.2396Z" stroke="#3E0010" stroke-width="1.5" stroke-linecap="round" stroke-linejoin="round"/>
</svg>
