<svg preserveAspectRatio="none" overflow="visible" style="display: block;" width="11" height="10" viewBox="0 0 11 10" fill="none" xmlns="http://www.w3.org/2000/svg">
<path id="Original" d="M3.0557 0C3.70021 2.97374e-05 4.29815 0.192891 4.79102 0.522246L4.79236 0.523111C4.58892 0.769487 4.41605 1.04019 4.27852 1.33006C3.93502 1.08772 3.51271 0.945439 3.0557 0.945408C1.90818 0.945408 0.977987 1.84461 0.977987 2.95391C0.978052 4.62091 2.10247 6.15746 3.42139 7.36163C4.06228 7.94676 4.70726 8.41513 5.1934 8.73713C5.30512 8.81113 5.40811 8.87686 5.5 8.93443C5.59189 8.87686 5.69488 8.81113 5.8066 8.73713C6.29274 8.41513 6.93772 7.94676 7.57861 7.36163C8.89753 6.15746 10.0219 4.62091 10.022 2.95391C10.022 1.84461 9.09182 0.945408 7.9443 0.945408C7.26538 0.945454 6.66266 1.25914 6.28194 1.7489L5.74438 2.44032C5.62215 2.59759 5.37785 2.59759 5.25562 2.44032L5.01168 2.12663C5.14562 1.6817 5.38468 1.2801 5.70142 0.948869C5.7045 0.945644 5.70727 0.94213 5.71037 0.938918C5.96846 0.671404 6.2777 0.450649 6.62256 0.290329C6.67416 0.266351 6.7265 0.243607 6.77966 0.222398C6.86564 0.188082 6.95358 0.157413 7.04329 0.13067C7.32811 0.0458084 7.63067 1.45264e-05 7.9443 0C7.9736 0 8.00292 0.00137136 8.03202 0.0021634L8.10185 0.00389413C8.19019 0.00822874 8.27749 0.0166863 8.36369 0.0281243C9.10888 0.12699 9.76788 0.485583 10.2409 1.00642C10.6043 1.40681 10.8576 1.9029 10.9548 2.4507C10.956 2.45776 10.9572 2.46483 10.9584 2.47191C10.9812 2.60624 10.9944 2.7436 10.9978 2.88339C10.9983 2.90679 11 2.93038 11 2.95391C10.9999 6.68752 6.5163 9.45786 5.64547 9.96075C5.55484 10.0131 5.44516 10.0131 5.35453 9.96075C4.4837 9.45786 0.000115607 6.68752 0 2.95391C0 1.32259 1.36817 0 3.0557 0Z" fill="white"/>
</svg>
